<svg width="651.1px" height="223.4px" viewBox="0 0 651.1 223.4" xmlns="http://www.w3.org/2000/svg" xmlns:xlink="http://www.w3.org/1999/xlink">
  <defs/>
  <g>
    <path stroke="none" fill="#ffff00" d="M18.15 1 L326.4 1 Q333.9 1 339.2 5.35 344.55 9.65 344.55 15.75 L344.55 193.7 0 138.15 0 15.75 Q0 9.65 5.35 5.35 10.65 1 18.15 1"/>
    <path stroke="none" fill="#000000" d="M552.05 168.55 Q554.85 168.55 556.9 169.55 558.9 170.55 558.9 171.95 L558.9 219.95 Q558.9 221.35 556.9 222.35 554.85 223.4 552.05 223.4 549.25 223.4 547.15 222.35 545.15 221.35 545.15 219.95 L545.15 171.95 Q545.15 170.55 547.15 169.55 549.25 168.55 552.05 168.55"/>
    <path stroke="none" fill="#000000" d="M353.95 137.25 Q356.75 137.25 358.75 138.3 360.85 139.25 360.85 140.7 L360.85 188.7 Q360.85 190.15 358.75 191.1 356.75 192.15 353.95 192.15 351.1 192.15 349.1 191.1 347.1 190.15 347.1 188.7 L347.1 140.7 Q347.1 139.25 349.1 138.3 351.1 137.25 353.95 137.25"/>
    <path stroke="none" fill="#999999" d="M627.55 4.7 L639 10.6 Q648.85 14.6 650.1 25.5 L650.1 183.4 Q650.1 190.95 643.65 195.9 L629.25 206.95 627.55 4.7"/>
    <path fill="none" stroke="#666666" stroke-width="2" stroke-linecap="round" stroke-linejoin="round" d="M627.55 4.7 L639 10.6 Q648.85 14.6 650.1 25.5 L650.1 183.4 Q650.1 190.95 643.65 195.9 L629.25 206.95"/>
    <path stroke="none" fill="#ffffff" d="M614.2 2.35 Q634.35 2.35 634.05 20.15 L634.05 193.35 Q634.05 201.65 629.55 205.55 625.5 209.75 617.1 209.35 L613.5 208.95 299.25 159.8 Q286.5 158.3 286.75 144.2 L287.9 15.35 288.1 13.25 Q288.2 11.65 288.7 10.35 290.75 0.75 301.5 1 L614.2 2.35 M301.4 10.6 Q298.7 10.55 298.05 12.7 L297.9 13.1 297.7 13.95 297.5 15.4 296.35 144.3 Q296.3 149.5 300.6 150.3 L300.75 150.3 615 199.4 615.5 199.5 617.3 199.75 617.55 199.75 Q621.1 199.95 623 198.6 624.45 196.85 624.45 193.35 L624.45 20.15 Q624.1 11.95 614.2 11.95 L301.4 10.6"/>
    <path fill="none" stroke="#666666" stroke-width="2" stroke-linecap="round" stroke-linejoin="round" d="M614.2 2.35 L301.5 1 Q290.75 0.75 288.7 10.35 288.2 11.65 288.1 13.25 L287.9 15.35 286.75 144.2 Q286.5 158.3 299.25 159.8 L613.5 208.95 617.1 209.35 Q625.5 209.75 629.55 205.55 634.05 201.65 634.05 193.35 L634.05 20.15 Q634.35 2.35 614.2 2.35"/>
    <path stroke="none" fill="#000000" d="M302.45 6.45 L542.9 7.4 613.4 7.8 Q628.35 7.8 628.35 20.6 L628.35 192.85 Q628.35 204.7 616.45 204.05 L613.4 203.55 300.9 154.75 Q292.35 153.65 292.5 144.05 L293.65 15.9 Q293.65 15.15 293.9 14.55 293.9 13.15 294.3 12.05 295.7 6.3 302.45 6.45"/>
    <path stroke="none" fill="#00ff00" d="M450.35 24.7 Q450.35 26.45 449.15 27.5 447.8 28.7 446.05 28.7 444.45 28.45 443.1 27.35 441.9 26.15 441.9 24.45 441.9 22.75 443.1 21.4 444.45 20.3 446.05 20.55 447.8 20.3 449.15 21.4 450.35 22.75 450.35 24.7 M460.35 24.7 Q460.35 26.45 459.1 27.75 457.7 28.85 455.95 28.85 454.35 28.85 453 27.5 451.65 26.15 451.8 24.45 451.8 22.75 453 21.65 454.35 20.55 455.95 20.55 457.7 20.55 459.1 21.8 460.35 22.95 460.35 24.7 M470.45 25.1 Q470.45 26.7 469.1 28.05 467.8 29 466.1 29 464.45 29 463.1 27.9 461.7 26.55 461.7 24.85 461.7 23.1 463.1 21.8 464.45 20.55 466.1 20.7 467.95 20.7 469.1 21.95 470.45 23.1 470.45 25.1 M480.9 25.15 Q480.75 27.1 479.5 28.05 478.1 29.4 476.35 29.25 474.45 29.4 473.3 28.05 472.05 26.7 472.05 24.85 472.05 23.1 473.3 22.2 474.45 20.85 476.35 20.7 478.3 20.85 479.65 21.95 480.75 23.5 480.9 25.15 M480.75 46.7 Q480.75 48.45 479.5 49.65 478.1 50.7 476.35 50.7 474.45 50.7 473.15 49.4 471.8 48.05 471.8 46.35 471.8 44.45 473.15 43.5 474.45 42.15 476.35 42.15 478.1 42.15 479.5 43.5 480.75 44.85 480.75 46.7 M480.75 36.05 Q480.75 37.8 479.5 38.95 478.1 40.15 476.35 39.8 474.45 39.8 473.15 38.7 471.8 37.4 471.8 35.55 471.8 33.8 473.15 32.6 474.45 31.25 476.35 31.25 478.1 31.5 479.5 32.85 480.75 34.2 480.75 36.05 M470.45 35.55 Q470.45 37.4 469.1 38.7 467.8 39.65 466.1 39.65 464.2 39.55 463.1 38.35 461.7 37.15 461.7 35.55 461.7 33.65 463.1 32.45 464.2 31.1 466.1 31.25 467.95 31.1 469.1 32.6 470.45 33.8 470.45 35.55 M470.3 46.35 Q470.3 48.05 469.1 49.25 467.8 50.35 465.9 50.35 464.2 50.2 462.85 49 461.5 47.75 461.7 45.95 461.7 44.05 462.85 42.95 464.2 41.8 466.1 41.95 467.8 41.8 469.1 43.35 470.3 44.45 470.3 46.35 M460.35 35.35 Q460.2 37 459.1 38.2 457.7 39.55 455.8 39.25 454.1 39.25 453 37.95 451.65 36.85 451.65 35.15 451.65 33.4 453 32.05 454.1 30.95 455.95 30.95 457.7 30.95 459.1 32.3 460.2 33.4 460.35 35.35 M450.35 35.15 Q450.35 36.85 449 37.8 447.8 39.15 446.05 39.15 444.2 38.95 443.1 37.8 441.7 36.6 441.7 34.75 441.9 33 443.1 31.9 444.2 30.55 446.05 30.7 447.8 30.7 449.15 31.9 450.35 33.4 450.35 35.15 M450.35 45.55 Q450.1 47.35 449 48.3 447.8 49.65 445.9 49.65 444.2 49.25 442.85 48.05 441.7 46.95 441.7 45.15 441.7 43.5 443.1 42.15 444.2 41.1 445.9 41.15 447.8 41.15 449 42.35 450.35 43.75 450.35 45.55 M460.2 45.75 Q460.2 47.5 458.9 48.85 457.7 49.95 455.8 49.8 454.1 49.8 452.75 48.45 451.65 47.1 451.65 45.4 451.65 43.75 453 42.55 454.1 41.4 455.8 41.4 457.7 41.55 459.1 42.75 460.2 43.9 460.2 45.75 M470.3 78.35 Q470.3 80.05 468.9 81.15 467.65 82.3 465.7 82.3 464.05 82.2 462.85 80.85 461.5 79.5 461.5 77.8 461.5 75.9 462.85 74.7 464.05 73.55 465.7 73.75 L466.1 73.75 Q467.8 73.75 468.9 75.25 470.3 76.45 470.3 78.35 M480.5 78.95 Q480.5 80.6 479.25 81.9 477.95 83.15 476.2 82.85 474.3 82.85 473 81.55 471.8 80.05 471.8 78.35 471.8 76.45 473 75.5 474.3 74.15 475.95 74.15 L476.35 74.15 Q478.1 74.55 479.5 75.9 480.5 77 480.5 78.95 M470.3 89 Q470.05 90.7 468.9 91.9 467.65 93 465.7 92.85 464.05 92.6 462.7 91.35 461.5 90.15 461.5 88.35 461.5 86.55 462.7 85.4 464.05 84.2 465.7 84.45 467.65 84.45 468.9 85.95 470.3 87.1 470.3 89 M480.5 89.55 Q480.5 91.35 479.25 92.6 477.95 93.95 476.2 93.55 474.3 93.55 473 92.3 471.65 90.7 471.65 89 471.65 87.1 473 86.15 474.3 85 476.2 85 477.95 85.15 479.25 86.55 480.5 87.8 480.5 89.55 M459.95 77.55 Q459.95 79.25 458.9 80.45 457.55 81.8 455.8 81.55 453.95 81.35 452.75 80.05 451.5 78.7 451.5 77 451.5 75.1 452.75 73.9 453.95 73 455.55 73 L455.95 73 Q457.55 73.15 458.9 74.55 459.95 75.65 459.95 77.55 M450.1 77 Q450.1 78.7 448.75 79.65 447.65 81 445.9 80.85 444.05 80.6 442.85 79.25 441.5 78.2 441.7 76.45 441.5 74.7 442.85 73.55 444.05 72.3 445.7 72.45 L445.9 72.6 Q447.65 72.6 449 73.75 450.1 75.1 450.1 77 M450.1 87.5 Q450.1 89.15 448.75 90.15 447.4 91.35 445.7 91.35 444.05 91.1 442.7 89.95 441.5 88.6 441.5 86.95 441.5 85 442.85 83.8 444.05 82.75 445.9 82.85 447.65 82.85 448.75 84.2 449.95 85.75 450.1 87.5 M459.95 88.2 Q459.95 89.75 458.9 91.1 457.55 92.3 455.55 92.05 453.95 91.9 452.6 90.55 451.5 89.15 451.5 87.5 451.5 85.75 452.75 84.45 453.95 83.4 455.8 83.4 457.55 83.8 458.9 85 459.95 86.35 459.95 88.2 M459.95 98.7 Q459.95 100.45 458.7 101.75 L458.5 101.75 Q457.3 102.85 455.55 102.45 453.95 102.45 452.75 101.15 L452.6 101 Q451.5 99.65 451.5 97.9 451.5 96.3 452.75 95.1 453.95 94.15 455.55 94.15 457.3 94.3 458.7 95.65 459.95 96.95 459.95 98.7 M449.95 97.9 Q449.95 99.65 448.75 100.85 L448.6 100.85 Q447.25 101.75 445.7 101.75 444.05 101.55 442.85 100.45 L442.7 100.2 Q441.3 98.7 441.5 97.25 441.5 95.5 442.7 94.3 444.05 93.15 445.7 93.35 447.4 93.55 448.75 94.7 449.95 96.3 449.95 97.9 M480.5 100.45 Q480.5 102.15 479.25 103.4 479.1 103.4 479.1 103.65 477.7 104.6 475.95 104.45 474.3 104.2 473.15 103.1 L473 103.1 Q471.65 101.35 471.65 99.65 471.65 97.9 473 96.85 474.3 95.65 476.2 95.9 477.95 95.95 479.25 97.35 480.5 98.55 480.5 100.45 M470.05 99.65 Q470.05 101.35 468.75 102.45 467.4 103.65 465.7 103.65 464.05 103.25 462.85 102.15 L462.7 101.9 Q461.3 100.6 461.3 98.85 461.3 97.25 462.7 95.95 464.05 94.7 465.7 95.1 467.65 95.1 468.9 96.55 470.05 97.75 470.05 99.65 M480.35 143.25 Q480.35 144.95 479.1 146.05 477.7 147.25 475.8 147.1 473.9 146.85 472.75 145.35 471.4 144.05 471.4 142.15 471.4 140.35 472.75 139.15 474.1 138.3 475.95 138.55 477.7 138.7 479.1 139.95 480.35 141.35 480.35 143.25 M459.8 140.85 Q459.8 142.55 458.5 143.65 457.15 144.55 455.4 144.55 453.7 144.35 452.35 142.85 451.1 141.5 451.25 139.9 451.25 137.9 452.35 136.95 453.7 135.8 455.4 135.95 457.3 136.35 458.5 137.75 459.8 139 459.8 140.85 M449.7 139.55 Q449.7 141.35 448.6 142.3 447.25 143.5 445.55 143.5 443.65 143.1 442.45 141.75 441.25 140.15 441.3 138.55 441.3 136.75 442.45 135.8 443.8 134.7 445.55 134.95 447.25 135.1 448.6 136.35 449.7 137.9 449.7 139.55 M449.7 150.15 Q449.7 151.95 448.45 153 447.25 153.95 445.3 153.65 443.65 153.5 442.45 152.2 441.25 150.7 441.25 149 441.25 147.25 442.45 146.3 443.65 145.1 445.55 145.35 447.25 145.5 448.6 146.85 449.7 148.45 449.7 150.15 M459.8 151.4 Q459.8 153.1 458.5 154.35 457.15 155.25 455.4 155 453.55 154.95 452.35 153.5 451.1 151.95 451.1 150.3 451.1 148.6 452.35 147.4 453.7 146.45 455.4 146.7 457.15 146.7 458.5 148.45 459.65 149.55 459.8 151.4 M469.9 142.15 Q469.9 143.8 468.5 144.95 467.25 145.9 465.55 145.9 463.65 145.5 462.5 144.2 461.15 142.85 461.3 141.15 461.3 139.15 462.5 138.15 463.65 136.95 465.55 137.35 467.4 137.35 468.75 138.95 469.9 140.15 469.9 142.15 M469.9 152.75 Q469.9 154.45 468.5 155.55 467.25 156.6 465.55 156.6 463.65 156.2 462.5 154.95 461.15 153.25 461.15 151.8 461.15 149.9 462.5 148.75 463.65 147.65 465.55 148.05 467.25 148.2 468.5 149.55 469.9 151 469.9 152.75 M480.2 154.05 Q480.2 155.8 479.1 156.95 477.7 158.15 475.8 157.9 473.9 157.55 472.75 156.2 471.4 154.6 471.4 153 471.4 151 472.75 149.9 473.9 149 475.8 149.15 477.7 149.55 479.1 150.85 480.2 152.2 480.2 154.05 M469.9 163.5 Q469.9 165.35 468.5 166.3 467.25 167.15 465.55 167.15 463.65 166.85 462.3 165.5 461.15 164.2 461.15 162.55 461.15 160.55 462.5 159.4 463.65 158.3 465.55 158.7 467.25 158.85 468.5 160.2 469.9 161.75 469.9 163.5 M480.2 164.95 Q480.2 166.7 478.9 167.75 477.55 168.95 475.8 168.55 473.9 168.45 472.6 166.85 471.25 165.35 471.4 163.65 471.4 161.9 472.75 160.75 473.9 159.8 475.8 159.95 477.7 160.2 479.1 161.75 480.2 163.1 480.2 164.95 M459.65 162.15 Q459.65 163.8 458.3 164.95 457.15 165.75 455.3 165.75 453.55 165.35 452.2 164.05 451.1 162.7 451.1 160.95 451.1 159 452.35 157.9 453.55 156.95 455.3 157.35 457.15 157.35 458.5 158.85 459.65 160.2 459.65 162.15 M449.7 160.75 Q449.7 162.55 448.45 163.5 447.1 164.55 445.3 164.2 443.65 164.05 442.3 162.7 441.25 161.15 441.25 159.4 441.25 157.75 442.45 156.75 443.65 155.4 445.3 155.8 447.1 155.95 448.45 157.55 449.7 158.85 449.7 160.75 M411.95 23.75 Q411.95 25.35 410.9 26.55 409.7 27.75 408.05 27.75 406.35 27.75 405.4 26.45 404.05 25.15 404.05 23.5 404.05 21.95 405.4 20.7 406.5 19.75 408.05 19.75 409.7 19.5 410.9 20.85 411.95 21.95 411.95 23.75 M402.9 23.5 Q402.9 25.15 401.8 26.45 400.6 27.5 398.85 27.5 397.3 27.35 396.3 26.15 395.1 25.1 395.1 23.5 395.1 21.8 396.3 20.7 397.3 19.35 398.85 19.5 400.6 19.5 401.8 20.7 402.9 21.95 402.9 23.5 M402.7 33.65 Q402.7 35.35 401.55 36.3 400.45 37.4 398.85 37.55 397.25 37.4 396.05 36.3 395.1 35.15 395.1 33.4 395.1 31.65 396.3 30.55 397.25 29.4 398.85 29.65 400.45 29.4 401.8 30.55 402.7 31.9 402.7 33.65 M411.95 33.8 Q411.95 35.55 410.9 36.85 409.55 37.8 408.05 37.8 406.35 37.8 405.15 36.45 404.05 35.35 404.05 33.65 404.05 31.9 405.15 30.7 406.35 29.8 408.05 29.8 409.7 29.65 410.9 30.95 411.95 32.05 411.95 33.8 M430.9 24.3 Q430.9 25.75 429.55 27 428.35 28.05 426.75 28.3 425 28.05 423.8 27 422.7 25.75 422.7 24.15 L422.7 23.9 Q422.7 22.2 423.8 21.1 425.15 19.9 426.75 20.15 428.35 19.9 429.7 21.25 430.9 22.35 430.9 24.3 M421.4 23.9 Q421.4 25.55 420.2 26.7 419.1 27.9 417.3 27.9 415.65 27.9 414.5 26.7 413.3 25.35 413.3 23.75 413.3 21.95 414.5 21.1 415.65 19.75 417.3 19.75 419.1 19.9 420.2 21.1 421.4 22.2 421.4 23.9 M421.4 33.95 Q421.25 35.75 420.05 37 418.85 38.2 417.3 37.95 415.65 37.95 414.5 36.85 413.3 35.55 413.3 33.8 413.3 32.05 414.5 31.1 415.65 29.8 417.3 29.8 418.85 29.95 420.2 31.1 421.25 32.45 421.4 33.95 M430.9 34.6 Q430.7 36.05 429.55 37.15 428.35 38.35 426.75 38.55 425 38.35 423.8 37.15 422.7 35.9 422.7 34.35 L422.7 34.2 Q422.7 32.45 423.8 31.25 425 29.95 426.75 30.2 428.35 30.2 429.55 31.25 430.7 32.85 430.9 34.6 M440.5 24.3 Q440.5 26.05 439.25 27.35 437.9 28.45 436.45 28.45 434.5 28.45 433.3 27 432.2 25.75 432.2 24.15 432.2 22.35 433.3 21.25 434.5 20.15 436.45 20.15 438.1 20.3 439.25 21.4 440.5 22.55 440.5 24.3 M440.35 34.6 Q440.35 36.45 439.25 37.55 437.9 38.7 436.3 38.7 434.5 38.7 433.3 37.4 431.95 36.05 432.2 34.6 432.2 32.6 433.3 31.5 434.5 30.35 436.3 30.35 438.1 30.55 439.25 31.65 440.35 32.85 440.35 34.6 M440.35 45 Q440.35 46.7 439.1 47.9 437.9 49.25 436.3 49 434.5 49 433.3 47.75 431.95 46.35 431.95 44.85 431.95 42.95 433.3 41.8 434.5 40.6 436.3 40.75 437.9 40.75 439.25 42.15 440.35 43.35 440.35 45 M430.7 44.85 Q430.7 46.35 429.55 47.5 428.2 48.7 426.75 48.7 425 48.45 423.8 47.35 422.7 46.15 422.5 44.45 422.7 42.75 423.8 41.55 425 40.2 426.75 40.55 428.35 40.55 429.55 41.55 430.7 42.95 430.7 44.85 M421.25 44.3 Q421.25 45.55 420.6 46.7 L420.05 47.1 Q418.85 48.3 417.15 48.3 415.5 48.3 414.3 46.95 L413.95 46.35 Q413.15 45.15 413.15 43.9 413.15 42.35 414.5 41.15 415.65 40.15 417.15 40.15 418.85 40.2 420.05 41.4 421.25 42.55 421.25 44.3 M411.8 43.9 Q411.8 45.15 411.3 46.35 L410.7 46.95 Q409.55 47.9 407.9 47.9 406.35 47.9 405.15 46.55 L404.6 45.95 Q404.05 45 404.05 43.75 404.05 41.95 405.15 40.75 406.35 39.65 408.05 39.8 409.55 39.65 410.7 41.1 411.8 42.35 411.8 43.9 M421.25 54.6 Q421.25 56.2 420.05 57.4 418.85 58.55 417.15 58.35 415.5 58.35 414.3 57.25 413.15 55.65 413.15 53.9 413.15 52.45 414.3 51.5 415.5 50.35 417.15 50.35 418.85 50.35 420.05 51.65 421.25 52.85 421.25 54.6 M421 74.95 Q421 76.6 419.9 77.8 418.7 78.95 417 78.7 415.25 78.7 414.3 77.4 412.9 76.05 412.9 74.3 412.9 72.6 414.3 71.65 415.25 70.55 417 70.55 L417.15 70.55 Q418.7 70.7 419.9 72.05 421 73.15 421 74.95 M421.25 64.6 Q421 66.35 420.05 67.75 418.7 68.7 417 68.7 415.5 68.7 414.3 67.35 413.15 65.95 413.15 64.3 413.15 62.55 414.3 61.55 415.5 60.45 417.15 60.45 418.85 60.45 420.05 61.8 421.25 62.95 421.25 64.6 M402.7 43.75 Q402.7 45 401.95 45.75 L401.55 46.35 Q400.45 47.5 398.85 47.5 397.25 47.35 396.05 46.15 L395.65 45.75 Q394.9 44.6 395.1 43.35 394.9 41.8 396.05 40.55 397.25 39.25 398.85 39.55 400.45 39.55 401.55 40.6 402.7 41.95 402.7 43.75 M402.7 53.75 Q402.5 55.25 401.55 56.45 400.45 57.55 398.7 57.55 397.25 57.4 396.05 56.2 394.9 55 394.9 53.25 394.9 51.65 396.05 50.55 397.25 49.4 398.7 49.65 400.45 49.65 401.55 50.7 402.7 52.05 402.7 53.75 M411.8 53.9 Q411.8 55.9 410.7 57 409.55 57.95 407.9 57.95 406.1 57.95 405 56.6 404.05 55.55 404.05 53.75 403.8 52.05 405.15 50.95 406.35 49.8 408.05 49.95 409.55 49.95 410.7 51.35 411.8 52.45 411.8 53.9 M411.8 64.3 Q411.8 65.95 410.7 67.1 409.55 67.95 407.9 67.95 406.1 67.95 405 66.75 403.8 65.4 403.8 63.9 403.8 62.15 405 61 406.1 59.8 407.9 59.8 409.55 59.8 410.7 61.4 411.8 62.55 411.8 64.3 M402.5 63.75 Q402.5 65.4 401.4 66.35 400.2 67.5 398.7 67.5 397 67.35 396.05 66.15 394.7 65 394.9 63.35 394.7 61.8 396.05 60.45 397.25 59.25 398.7 59.5 400.2 59.5 401.4 60.85 402.5 62.15 402.5 63.75 M402.5 73.75 Q402.5 75.5 401.4 76.45 400.2 77.55 398.7 77.55 397 77.4 395.9 76.05 394.7 74.95 394.7 73.15 394.7 71.65 396.05 70.55 397 69.35 398.6 69.65 L398.7 69.65 Q400.2 69.65 401.4 70.7 402.5 72.05 402.5 73.75 M411.7 74.3 Q411.7 76.05 410.5 77.25 409.3 78.2 407.7 78.2 406.1 78.2 405 76.6 403.8 75.5 403.8 73.75 403.8 72.3 405 70.95 406.1 69.95 407.7 70.15 L407.9 70.15 Q409.3 70.15 410.7 71.5 411.7 72.6 411.7 74.3 M402.5 83.8 Q402.35 85.55 401.4 86.55 400.05 87.65 398.6 87.5 397 87.25 395.9 86.15 394.7 84.75 394.7 83.25 394.7 81.55 395.9 80.45 397 79.25 398.7 79.65 400.2 79.65 401.4 80.85 402.5 82.2 402.5 83.8 M402.35 93.95 Q402.35 95.65 401.15 96.35 L401.15 96.85 Q399.9 97.75 398.6 97.5 397 97.35 396.05 96.3 L395.65 96.3 Q394.7 94.95 394.7 93.35 394.7 91.65 395.9 90.55 396.85 89.35 398.6 89.55 400.2 89.55 401.4 90.95 402.35 92.3 402.35 93.95 M411.7 84.45 Q411.7 86.15 410.5 87.25 409.3 88.2 407.7 88.2 405.95 88.05 405 86.75 403.65 85.55 403.8 83.8 403.65 82.2 405 81 406.1 80.05 407.7 80.2 409.3 80.2 410.5 81.55 411.7 82.85 411.7 84.45 M411.7 94.7 Q411.7 96.3 410.35 97.5 L410.35 97.75 407.7 98.3 Q406.1 98.3 405 96.95 L404.75 96.95 Q403.65 95.65 403.65 93.95 403.65 92.3 404.75 91.35 405.95 89.95 407.7 90.35 409.3 90.35 410.5 91.65 411.7 93 411.7 94.7 M402.35 104.05 Q402.35 105.55 401.15 106.75 400.05 107.65 398.3 107.65 396.85 107.5 395.65 106.15 394.5 104.75 394.5 103.25 394.5 101.55 395.65 100.45 396.85 99.25 398.6 99.65 400.05 99.65 401.15 100.85 402.35 102.3 402.35 104.05 M402.35 114.15 Q402.35 115.65 401 116.55 399.9 117.75 398.3 117.75 396.6 117.35 395.65 116.2 394.5 114.95 394.5 113.15 394.5 111.75 395.65 110.45 396.85 109.4 398.3 109.75 400.05 109.75 401.15 110.85 402.35 112.35 402.35 114.15 M411.4 104.75 Q411.7 106.55 410.35 107.65 409.15 108.6 407.7 108.35 405.95 108.2 404.75 106.95 403.65 105.8 403.65 104.05 403.65 102.3 404.75 101.15 405.95 100.05 407.7 100.45 409.15 100.45 410.35 101.9 411.4 103.1 411.4 104.75 M440.2 76.2 Q440.2 77.95 439.1 79.1 437.7 80.45 436.05 80.05 434.3 80.05 433.15 78.55 431.8 77.4 431.95 75.65 431.95 73.9 433.15 72.85 434.3 71.9 436.05 71.9 L436.3 71.9 Q437.9 72.05 439.1 73.15 440.2 74.55 440.2 76.2 M430.5 75.65 Q430.5 77.4 429.4 78.35 428.2 79.5 426.3 79.5 424.75 79.25 423.65 77.95 422.5 76.85 422.5 75.25 L422.5 75.1 Q422.5 73.35 423.65 72.3 424.75 71.1 426.3 71.35 L426.75 71.35 Q428.2 71.35 429.4 72.6 430.5 73.9 430.5 75.65 M430.5 85.95 Q430.5 87.65 429.4 88.6 428.05 89.75 426.3 89.75 424.6 89.55 423.5 88.2 422.35 87.1 422.35 85.4 422.5 83.75 423.5 82.45 424.75 81.35 426.45 81.55 428.2 81.55 429.4 82.75 430.5 84.2 430.5 85.95 M440.2 86.75 Q440.2 88.2 438.9 89.55 437.7 90.7 436.05 90.35 434.3 90.35 433 89 431.8 87.65 431.8 85.95 431.8 84.2 433.15 83.15 434.3 82.2 436.05 82.2 437.7 82.3 438.9 83.75 440.2 84.75 440.2 86.75 M421 85.15 Q421 86.95 419.9 88.05 418.7 89.15 417 88.75 415.25 88.75 414.1 87.65 412.9 86.15 412.9 84.6 412.9 82.85 414.1 81.9 415.25 80.6 417 80.85 418.7 81 419.9 82.2 421 83.4 421 85.15 M430.5 96.3 Q430.5 97.9 429.4 99.1 L429 99.1 Q427.8 100.05 426.3 100.05 424.75 99.9 423.65 98.7 L423.5 98.55 Q422.35 97.35 422.35 95.9 L422.35 95.5 Q422.35 93.75 423.5 92.85 424.6 91.65 426.3 91.9 428.05 91.9 429.4 93.15 430.5 94.55 430.5 96.3 M421 95.25 Q421 97.25 419.9 98.2 L419.65 98.3 Q418.5 99.25 416.85 99.1 415.25 99.1 414.3 97.9 L414.1 97.75 Q412.75 96.35 412.9 94.7 412.9 93 414.1 92.05 415.25 90.95 417 90.95 418.5 91.35 419.9 92.45 421 93.55 421 95.25 M421 105.55 Q421 107.25 419.65 108.35 418.5 109.55 416.85 109.4 415.1 109.15 413.95 107.8 412.75 106.55 412.75 105 412.75 103.1 414.1 102.15 415.25 101 417 101.15 418.5 101.35 419.9 102.7 421 103.8 421 105.55 M440.2 96.95 Q439.95 98.7 438.9 99.9 L438.7 100.05 Q437.55 101.15 436.05 100.85 434.3 100.85 433.15 99.5 L433 99.25 Q431.8 97.9 431.8 96.3 431.8 94.7 433 93.55 434.3 92.45 436.05 92.6 437.7 92.85 438.9 93.95 439.95 95.25 440.2 96.95 M420.85 115.8 Q420.85 117.55 419.65 118.7 418.5 119.9 416.85 119.5 415.1 119.5 413.95 117.9 412.75 116.55 412.75 115.1 412.75 113.35 413.95 112.3 415.1 111.35 416.85 111.35 418.5 111.75 419.65 112.95 420.85 114.15 420.85 115.8 M420.85 125.8 Q420.85 127.4 419.5 128.6 418.3 129.75 416.85 129.4 415.1 129.15 413.95 127.8 412.75 126.45 412.75 124.95 412.75 123.25 413.95 122.15 415.1 121 416.85 121.15 418.5 121.55 419.65 122.7 420.85 124.05 420.85 125.8 M420.6 135.95 Q420.6 137.75 419.5 138.95 418.3 139.9 416.6 139.55 414.9 139.5 413.95 138.15 412.7 136.75 412.75 135.1 412.7 133.35 413.95 132.2 415.1 131.25 416.85 131.4 418.3 131.8 419.65 133 420.6 134.3 420.6 135.95 M430.35 137.35 Q430.1 138.95 429 139.95 427.8 140.95 426.05 140.95 424.45 140.55 423.25 139.15 422.2 137.9 422.2 136.2 422.2 134.55 423.25 133.55 424.45 132.35 426.05 132.75 427.8 132.75 429.15 134.15 430.35 135.65 430.35 137.35 M420.6 146.3 Q420.6 148.05 419.5 149.15 418.3 150.15 416.6 149.9 414.9 149.75 413.7 148.2 412.7 146.85 412.7 145.1 412.7 143.8 413.3 142.85 L413.7 142.55 Q414.9 141.5 416.6 141.75 418.3 141.9 419.5 143.25 L419.9 143.8 Q420.6 144.75 420.6 146.3 M430.1 147.65 Q430.1 149.4 429 150.3 427.7 151.4 426.05 151.25 424.2 150.85 423.1 149.75 421.95 148.2 422.2 146.45 421.95 144.75 423.25 143.65 424.45 142.7 426.05 143.1 427.8 143.1 429 144.35 430.1 145.9 430.1 147.65 M439.9 138.3 Q439.9 139.95 438.7 141.15 437.3 142.15 435.65 142.15 433.95 141.9 432.75 140.35 431.5 139 431.65 137.35 431.65 135.65 432.75 134.55 433.95 133.55 435.9 133.75 437.3 133.95 438.7 135.5 439.9 136.55 439.9 138.3 M439.9 148.75 Q439.9 150.45 438.7 151.65 437.3 152.55 435.65 152.35 433.95 152.2 432.75 150.7 431.5 149.4 431.5 147.8 431.5 145.9 432.75 144.95 433.95 144.05 435.65 144.05 437.3 144.2 438.7 145.75 439.9 147.1 439.9 148.75 M411.4 115.1 Q411.4 116.55 410.35 117.75 409.15 118.7 407.5 118.55 405.8 118.3 404.6 116.95 403.4 115.8 403.65 114.15 403.4 112.35 404.75 111.4 405.95 110.35 407.5 110.45 409.15 110.45 410.35 111.95 411.4 113.15 411.4 115.1 M402.2 123.65 Q402.2 125.4 401 126.35 399.9 127.4 398.3 127.4 396.6 127.1 395.65 125.8 394.35 124.55 394.5 123.1 394.5 121.4 395.65 120.2 396.85 119.1 398.3 119.5 399.9 119.5 401 120.6 402.2 121.9 402.2 123.65 M402.2 133.75 Q402.2 135.5 401 136.55 399.9 137.55 398.2 137.15 396.6 137.15 395.5 135.8 394.35 134.55 394.35 133 394.35 131.25 395.5 130.15 396.6 129.15 398.3 129.4 399.9 129.55 401 130.85 402.2 131.95 402.2 133.75 M411.4 124.75 Q411.4 126.45 410.35 127.65 409 128.35 407.5 128.35 405.8 128.05 404.6 126.85 403.4 125.5 403.4 124.05 403.4 122.3 404.6 121.15 405.8 119.9 407.5 120.2 409.15 120.45 410.35 121.75 411.4 123.1 411.4 124.75 M411.3 134.95 Q411.3 136.55 410.1 137.75 409 138.7 407.5 138.55 405.8 138.15 404.6 136.95 403.4 135.65 403.4 133.95 403.4 132.2 404.6 131.25 405.8 130.15 407.5 130.45 409.15 130.45 410.1 131.95 411.3 133.15 411.3 134.95 M402.2 143.8 Q401.95 145.35 401 146.45 399.9 147.65 398.2 147.25 396.6 147.25 395.5 145.9 394.1 144.35 394.35 142.85 394.35 141.5 395.1 140.55 L395.5 140.15 Q396.6 139 398.3 139.5 399.9 139.55 401 140.85 L401.4 141.35 Q402.2 142.55 402.2 143.8 M411.3 145.1 Q411.3 146.7 410.1 148.05 409 148.75 407.3 148.75 405.55 148.45 404.45 147.1 403.25 145.75 403.4 144.05 403.25 142.7 404.05 141.75 L404.6 141.35 Q405.55 140.15 407.5 140.55 409 140.55 410.1 142.15 L410.5 142.7 Q411.3 143.65 411.3 145.1 M411.3 155.25 Q411.3 156.95 410.1 158.15 409 158.85 407.3 158.85 405.55 158.45 404.45 157.15 403.25 155.8 403.25 154.05 403.25 152.55 404.45 151.4 405.55 150.3 407.3 150.7 409 150.85 410.1 152.35 411.3 153.5 411.3 155.25 M401.95 153.95 Q401.95 155.4 400.85 156.6 399.65 157.75 398.2 157.35 396.45 157.15 395.25 155.8 394.1 154.45 394.35 153 394.35 151.25 395.25 150.3 396.6 149.15 398.2 149.4 399.65 149.75 400.85 150.85 401.95 152.2 401.95 153.95 M439.9 159.15 Q439.65 160.95 438.5 162.15 437.3 162.85 435.65 162.85 433.95 162.7 432.6 161.15 431.5 159.8 431.5 158.15 431.5 156.35 432.75 155.25 433.95 154.35 435.65 154.45 437.3 154.6 438.5 156.2 439.65 157.55 439.9 159.15 M430.1 158.15 Q430.1 159.55 428.75 160.55 427.7 161.75 425.9 161.5 424.2 161.15 423.1 159.8 421.95 158.45 421.95 156.95 421.95 155 423.1 154.05 424.2 153 425.9 153.25 427.7 153.25 429 154.6 430.1 156.2 430.1 158.15 M420.6 156.6 Q420.6 158.3 419.5 159.15 418.1 160.35 416.45 159.95 414.9 159.8 413.7 158.45 412.7 157.15 412.7 155.4 412.7 153.65 413.7 152.55 414.9 151.8 416.6 151.8 418.3 152.2 419.5 153.5 420.6 154.95 420.6 156.6"/>
    <path stroke="none" fill="#ff0000" d="M326.45 21.95 Q326.45 23.5 325.4 24.7 324.45 25.75 323 25.55 321.65 25.55 320.7 24.7 319.7 23.35 319.7 21.8 319.7 20.85 320.1 20.3 L320.7 19.35 Q321.65 18.2 323.15 18.2 324.45 18.2 325.4 19.35 326.05 19.9 326.1 20.55 L326.45 21.95 M318.5 21.8 Q318.5 23.35 317.65 24.45 316.7 25.55 315.3 25.35 313.8 25.35 312.9 24.3 311.95 23.35 311.95 21.8 311.95 20.7 312.45 19.9 L313 19.15 Q313.95 17.95 315.3 17.95 316.7 18.2 317.65 19.35 L318.2 20.15 318.5 21.8 M326.45 31.25 Q326.45 32.85 325.25 33.95 324.3 35.15 323 34.95 321.65 34.95 320.5 33.8 319.5 32.6 319.5 31.1 319.7 29.4 320.7 28.7 321.65 27.5 323 27.5 324.45 27.5 325.4 28.7 326.45 29.8 326.45 31.25 M318.5 31.1 Q318.35 32.6 317.4 33.8 316.5 34.75 315.15 34.6 313.8 34.6 312.9 33.65 311.95 32.45 311.95 30.95 311.95 29.4 312.9 28.3 313.8 27.35 315.3 27.35 316.7 27.35 317.65 28.45 318.5 29.65 318.5 31.1 M326.1 40.6 Q326.1 42.15 325.25 43.35 324.3 44.3 322.75 44.3 321.5 44.3 320.5 43.1 319.5 41.8 319.5 40.2 319.5 38.7 320.5 37.8 321.5 36.6 323 36.6 324.3 36.85 325.25 37.95 326.1 38.95 326.1 40.6 M318.35 40.2 Q318.35 41.8 317.4 42.95 316.5 44.05 315.15 43.9 313.8 43.9 312.6 42.75 311.7 41.55 311.95 40.2 311.7 38.35 312.9 37.55 313.8 36.45 315.15 36.45 316.5 36.6 317.4 37.8 318.35 38.7 318.35 40.2 M318.35 49.65 Q318.35 51.1 317.4 52.3 316.3 53.25 314.9 53 313.55 53 312.6 52.05 311.7 50.7 311.7 49.25 311.7 47.75 312.6 46.7 313.55 45.55 315.15 45.55 316.5 45.75 317.4 46.95 318.35 48.05 318.35 49.65 M326.1 49.95 Q326.1 51.5 325.25 52.6 324.1 53.65 322.75 53.65 321.5 53.35 320.5 52.45 319.5 51.1 319.5 49.65 319.5 47.9 320.5 47.1 321.5 45.95 322.75 45.95 324.3 46.15 325.25 47.35 326.1 48.3 326.1 49.95 M326.1 59.25 Q326.05 60.85 325.1 61.95 324.1 62.95 322.75 62.75 321.25 62.75 320.3 61.8 319.3 60.45 319.3 58.95 319.3 57.25 320.3 56.45 321.25 55.25 322.75 55.25 324.1 55.55 325.25 56.6 326.1 57.8 326.1 59.25 M318.35 58.95 Q318.2 60.2 317.25 61.4 316.3 62.55 314.9 62.35 313.55 62.35 312.6 61.15 311.7 59.8 311.7 58.35 311.7 56.85 312.6 56.05 313.55 55 314.9 55 316.3 55.1 317.4 56.2 318.35 57.25 318.35 58.95 M318.2 67.95 Q318.2 69.65 317.25 70.7 316.3 71.65 314.75 71.5 313.4 71.5 312.45 70.3 311.5 69.1 311.5 67.75 311.5 65.95 312.6 65.15 313.4 64.05 314.9 64.3 316.3 64.3 317.25 65.4 318.2 66.55 318.2 67.95 M326.05 68.7 Q326.05 70.15 325.1 71.35 324.1 72.3 322.6 72.05 321.25 72.05 320.3 70.95 319.15 69.65 319.3 67.95 319.3 66.55 320.3 65.55 321.25 64.6 322.75 64.6 324.1 64.85 325.1 65.95 326.05 67.1 326.05 68.7 M326.05 77.95 Q325.8 79.5 324.85 80.6 323.9 81.55 322.6 81.35 321.1 81.35 320.1 80.2 319.15 78.95 319.15 77.4 319.15 75.9 320.1 75.1 321.25 73.9 322.6 73.9 324.1 74.15 325.1 75.25 326.05 76.45 326.05 77.95 M317.95 77.4 Q317.95 78.95 317.1 80.05 316.1 81 314.75 80.85 313.4 80.85 312.45 79.65 311.5 78.35 311.5 76.85 311.5 75.25 312.45 74.55 313.4 73.35 314.75 73.35 316.3 73.55 317.1 74.7 317.95 75.9 317.95 77.4 M325.8 87.25 Q325.8 89 324.85 89.95 323.9 90.95 322.6 90.7 321.1 90.7 320.1 89.55 319.15 88.2 319.15 86.75 319.15 85.15 320.1 84.2 321.1 83.25 322.6 83.25 323.9 83.4 324.85 84.6 325.8 85.75 325.8 87.25 M317.95 86.75 Q317.95 88.2 317.1 89.15 316.1 90.35 314.75 90.15 313.3 89.95 312.35 89 311.3 87.65 311.3 85.95 311.3 84.6 312.35 83.75 313.4 82.45 314.75 82.75 316.1 82.85 317.1 84.05 317.95 85.15 317.95 86.75 M325.8 96.55 Q325.8 98.2 324.85 99.25 323.7 100.45 322.45 100.05 321.1 100.05 320.1 98.85 318.9 97.5 319.15 95.95 319.15 94.3 320.1 93.55 321.1 92.6 322.45 92.6 323.9 92.85 324.85 93.95 325.8 95.1 325.8 96.55 M317.95 95.95 Q317.95 97.35 316.85 98.55 315.9 99.5 314.6 99.25 313.3 99.25 312.35 98.2 311.3 96.85 311.3 95.25 311.3 93.75 312.35 92.85 313.3 91.9 314.75 91.9 315.9 92.3 317.1 93.35 317.95 94.3 317.95 95.95 M317.8 105.15 Q317.8 106.75 317.1 107.65 L316.85 107.8 Q315.9 108.75 314.6 108.6 313.3 108.35 312.35 107.5 L312.35 107.25 Q311.15 105.95 311.3 104.45 311.3 102.85 312.35 102.15 313.3 101 314.6 101.15 315.9 101.35 316.85 102.45 317.8 103.65 317.8 105.15 M325.65 106.15 Q325.65 107.25 325.1 108.05 L324.7 108.6 Q323.7 109.75 322.2 109.4 320.85 109.4 319.9 108.2 L319.7 107.65 Q318.9 106.75 318.9 105.4 318.9 103.65 319.9 102.85 321.1 101.9 322.45 101.9 323.7 102.15 324.7 103.4 325.8 104.45 325.65 106.15 M311 21.65 Q311 23.1 309.95 24.3 309.1 25.15 307.7 25.15 306.2 25.15 305.4 24.3 304.45 23.1 304.45 21.65 304.45 20.55 305.1 19.5 L305.4 19.15 Q306.45 17.8 307.7 17.8 309.1 17.95 309.95 19.15 L310.6 19.75 Q311 20.7 311 21.65 M310.75 30.7 Q310.75 32.3 309.8 33.4 308.85 34.6 307.55 34.35 306.2 34.35 305.25 33.25 304.3 32.3 304.3 30.7 304.3 29.25 305.25 28.05 306.2 27 307.55 27 309.1 27.1 309.8 28.3 310.75 29.25 310.75 30.7 M310.75 40.15 Q310.75 41.55 309.8 42.55 308.85 43.75 307.55 43.5 306.2 43.5 305.25 42.35 304.3 41.4 304.3 39.8 304.3 38.35 305.25 37.15 306.2 36.3 307.55 36.3 308.85 36.3 309.8 37.4 310.75 38.55 310.75 40.15 M310.6 49.25 Q310.6 50.7 309.65 51.9 308.7 52.85 307.4 52.6 306.05 52.6 305.1 51.65 304.05 50.55 304.05 49 304.05 47.5 305.1 46.35 306.05 45.15 307.55 45.4 308.85 45.4 309.8 46.55 310.75 47.75 310.6 49.25 M310.6 58.35 Q310.6 59.8 309.65 61 308.7 61.95 307.4 61.8 306.05 61.8 305.1 60.85 304.05 59.65 304.05 58.2 304.05 56.6 305.1 55.55 306.05 54.6 307.4 54.6 308.7 54.7 309.65 55.9 310.6 56.85 310.6 58.35 M310.6 67.75 Q310.6 69.1 309.4 70.15 308.5 71.35 307.15 71.1 305.8 70.95 304.85 69.95 303.9 68.7 304.05 67.35 303.9 65.55 305.1 64.6 306.05 63.75 307.4 63.75 308.7 63.9 309.65 65 310.6 65.95 310.6 67.75 M310.35 76.85 Q310.35 78.35 309.4 79.5 308.5 80.45 307.15 80.2 305.8 80.2 304.85 79.1 303.9 77.8 303.9 76.2 303.9 74.7 304.85 73.9 305.8 72.85 307.15 72.85 308.5 73 309.4 74.15 310.35 75.25 310.35 76.85 M310.35 85.95 Q310.35 87.5 309.4 88.6 308.35 89.55 307.15 89.35 305.65 89.15 304.7 88.2 303.9 86.95 303.9 85.4 303.9 83.8 304.85 83.15 305.8 81.9 307.15 82.2 308.5 82.3 309.4 83.4 310.35 84.45 310.35 85.95 M310.2 95.25 Q310.2 96.55 309.25 97.75 308.35 98.7 307 98.55 305.65 98.55 304.7 97.35 303.7 95.95 303.7 94.55 303.7 93 304.7 92.3 305.65 91.1 307 91.35 308.35 91.5 309.25 92.6 310.2 93.75 310.2 95.25 M310.2 104.45 Q310.2 105.95 309.25 107.1 L308.85 107.25 307 107.65 Q306.05 107.65 305.25 107.1 L304.7 106.55 Q303.5 105.15 303.7 103.65 303.7 102.15 304.7 101.35 305.65 100.2 307 100.45 308.35 100.6 309.25 101.75 310.2 102.85 310.2 104.45 M310.2 113.35 Q309.95 114.95 309.1 115.8 308.1 116.75 306.75 116.55 305.4 116.55 304.45 115.5 303.5 113.95 303.5 112.6 303.5 111 304.45 110.35 305.4 109.15 307 109.4 308.35 109.55 309.25 110.6 309.95 111.8 310.2 113.35 M309.95 122.45 Q309.95 124.05 309.1 125.1 308.1 126.05 306.75 125.9 305.4 125.8 304.45 124.55 303.5 123.25 303.5 121.75 303.5 120.2 304.45 119.5 305.4 118.55 306.75 118.55 308.1 118.7 309.1 120.05 309.95 121 309.95 122.45 M317.8 114.3 Q317.8 115.8 316.85 116.75 315.7 117.55 314.35 117.55 313 117.35 312.05 116.2 311.15 114.95 311.15 113.55 311.15 111.8 312.05 111 313 110.15 314.6 110.15 315.9 110.35 316.85 111.75 317.8 112.6 317.8 114.3 M317.65 123.5 Q317.65 124.95 316.7 126.05 315.7 126.85 314.35 126.85 312.9 126.75 312.05 125.5 311.15 124.2 311.15 122.7 311.15 121.15 312.05 120.45 313 119.25 314.35 119.5 315.7 119.5 316.7 120.85 317.65 121.9 317.65 123.5 M309.8 131.8 Q309.8 133.35 309.1 134.3 307.95 135.25 306.6 135.1 305.25 134.95 304.3 133.75 303.3 132.35 303.3 130.85 303.3 129.4 304.45 128.6 305.25 127.65 306.75 127.65 308.1 128.05 309.1 129.15 309.8 130.3 309.8 131.8 M309.8 141.15 Q309.8 142.55 308.85 143.65 307.95 144.35 306.6 144.2 305.25 144.05 304.3 143.1 303.3 141.5 303.3 140.15 303.3 138.55 304.3 137.75 305.25 136.75 306.6 136.95 307.95 136.95 308.85 138.3 309.8 139.5 309.8 141.15 M317.65 132.75 Q317.65 134.3 316.7 135.5 315.55 136.2 314.2 135.95 312.9 135.95 311.95 134.95 311 133.35 311.15 131.8 311 130.3 311.95 129.55 312.9 128.35 314.35 128.6 315.7 128.75 316.7 130.15 317.65 131.25 317.65 132.75 M317.65 142.15 Q317.4 143.65 316.5 144.75 315.55 145.5 314.2 145.35 312.9 145.1 311.95 144.05 311 142.7 311 141.15 311 139.55 311.95 138.95 312.9 137.75 314.35 137.9 315.55 138.15 316.7 139.5 317.4 140.55 317.65 142.15 M375.1 130.45 Q375.1 132.2 373.95 133.15 373.25 133.95 371.9 134.15 L371.3 134.15 Q369.7 133.75 368.75 132.6 367.7 131.25 367.9 129.55 367.7 128.05 368.75 126.85 370.05 125.9 371.5 126.35 L371.9 126.35 Q373 126.45 373.95 127.65 375.1 129 375.1 130.45 M366.5 129.4 Q366.5 131 365.65 131.95 364.45 133.15 362.9 133 361.4 132.75 360.3 131.4 359.3 130.3 359.3 128.6 359.3 127.1 360.3 125.9 361.4 124.95 362.9 125.4 364.45 125.4 365.65 126.45 366.5 127.8 366.5 129.4 M358.2 128.35 Q358.2 129.9 357 131 355.95 131.95 354.6 131.8 L352.6 131.25 351.9 130.45 Q351 129.15 351 127.4 351 125.9 352.05 124.95 L352.6 124.45 354.6 124.05 Q355.95 124.45 357 125.5 358.2 126.75 358.2 128.35 M349.8 127.4 Q349.8 129 348.7 130.15 347.7 131 346.1 130.85 344.7 130.6 343.7 129.55 342.75 128.05 342.75 126.45 342.75 124.95 343.7 124.05 344.85 123.1 346.35 123.1 347.7 123.5 348.7 124.55 349.8 125.8 349.8 127.4 M366.5 139.15 Q366.5 140.85 365.4 141.9 364.3 142.85 362.75 142.55 361.4 142.55 360.3 141.15 359.15 139.9 359.3 138.3 359.15 136.75 360.3 135.65 361.4 134.7 362.9 134.95 364.45 135.1 365.4 136.35 366.5 137.55 366.5 139.15 M357.95 138.15 Q357.95 139.55 357 140.85 355.95 141.75 354.35 141.5 L352.6 140.85 351.9 139.95 Q350.75 138.7 351 137.15 350.75 135.5 351.9 134.7 L352.6 133.95 354.35 133.75 Q355.95 133.95 357 135.25 357.95 136.35 357.95 138.15 M349.65 136.95 Q349.65 138.55 348.7 139.55 347.5 140.55 346.1 140.35 344.7 140.15 343.7 139 342.5 137.55 342.75 135.95 342.5 134.3 343.7 133.55 344.7 132.6 346.1 132.6 347.5 133 348.7 134.15 349.65 135.5 349.65 136.95 M357.95 147.8 Q357.95 149.4 356.85 150.45 355.95 151.4 354.35 151 353.4 151 352.6 150.45 L351.9 149.75 Q350.75 148.45 350.75 146.7 350.75 145.1 351.9 144.2 352.3 143.8 352.6 143.65 L354.35 143.5 Q355.95 143.65 357 144.95 357.95 146.05 357.95 147.8 M349.65 146.7 Q349.65 148.2 348.7 149.15 347.5 150.3 345.95 149.9 344.45 149.75 343.5 148.6 342.5 147.25 342.5 145.5 342.5 144.05 343.5 143.25 344.7 142.15 346.1 142.3 347.5 142.55 348.7 143.8 349.65 144.95 349.65 146.7 M366.35 149 Q366.35 150.45 365.25 151.65 364.3 152.55 362.75 152.2 361.15 151.95 360.05 150.85 359.15 149.75 359.15 148.05 359.15 146.3 360.3 145.35 361.15 144.35 362.75 144.55 364.3 144.75 365.4 146.05 366.35 147.25 366.35 149 M375.1 140.35 Q375.1 141.9 373.95 143.1 373 143.8 371.9 143.8 L371.3 143.8 Q369.7 143.5 368.75 142.3 367.7 140.95 367.7 139.5 367.7 137.75 368.75 136.75 369.7 135.65 371.5 135.95 L371.9 135.95 Q373 136.2 373.95 137.35 375.1 138.7 375.1 140.35 M375.1 150.3 Q374.9 151.8 373.95 152.75 373 153.5 371.9 153.65 L371.3 153.65 Q369.7 153.25 368.7 151.95 367.7 150.85 367.7 149.15 367.7 147.65 368.7 146.45 369.7 145.5 371.3 145.75 L371.9 145.9 Q373 146.05 373.95 147.25 375.1 148.6 375.1 150.3 M333.4 125.5 Q333.4 126.85 332.45 128.05 331.5 129.15 330.05 128.75 328.7 128.6 327.65 127.4 326.5 126.05 326.7 124.55 326.7 123.1 327.65 122.15 328.7 121.15 330.05 121.4 331.5 121.55 332.45 122.7 333.4 123.8 333.4 125.5 M341.55 126.45 Q341.5 128.05 340.5 129 339.55 130.15 337.95 129.75 336.7 129.55 335.55 128.35 334.6 127.1 334.6 125.5 334.6 124.05 335.7 123.1 336.7 122.15 338.2 122.15 339.55 122.45 340.6 123.65 341.55 124.75 341.55 126.45 M325.65 115.1 Q325.65 116.55 324.7 117.75 323.7 118.7 322.2 118.55 320.7 118.3 319.9 117.15 318.9 115.8 318.9 114.3 318.9 112.75 319.9 111.8 320.85 110.85 322.2 110.85 323.7 111.35 324.7 112.35 325.65 113.55 325.65 115.1 M325.65 124.45 Q325.65 126.05 324.45 127.1 323.5 127.8 322.2 127.8 320.7 127.65 319.7 126.35 318.75 125.1 318.75 123.65 318.75 121.9 319.7 121.15 320.7 120.2 322.2 120.45 323.5 120.45 324.7 121.75 325.65 122.85 325.65 124.45 M325.4 133.95 Q325.4 135.25 324.45 136.35 323.5 137.15 322.05 137.15 320.7 136.95 319.7 135.65 318.5 134.55 318.75 133 318.75 131.25 319.7 130.3 320.7 129.55 322.2 129.75 323.5 129.75 324.45 131 325.4 132.2 325.4 133.95 M333.4 134.95 Q333.4 136.35 332.45 137.55 331.3 138.3 330.05 138.3 328.45 138.15 327.5 136.75 326.5 135.5 326.5 133.95 326.5 132.35 327.65 131.65 328.7 130.45 330.05 130.6 331.5 130.85 332.45 131.95 333.4 133.35 333.4 134.95 M325.4 143.25 Q325.4 144.75 324.3 145.9 323.3 146.45 322.05 146.45 320.5 146.3 319.5 144.95 318.5 143.8 318.5 142.3 318.5 140.55 319.7 139.55 320.7 138.95 322.05 139 323.5 139 324.45 140.55 325.4 141.75 325.4 143.25 M333.4 144.35 Q333.25 145.9 332.3 146.85 331.3 147.65 329.8 147.65 328.45 147.4 327.5 146.05 326.5 144.95 326.5 143.5 326.5 141.75 327.5 140.85 328.45 139.95 330.05 139.95 331.3 140.15 332.3 141.5 333.4 142.7 333.4 144.35 M341.5 135.95 Q341.5 137.55 340.5 138.55 339.3 139.5 337.95 139.15 336.5 139.15 335.55 137.9 334.6 136.55 334.6 135.1 334.6 133.35 335.55 132.6 336.7 131.4 337.95 131.65 339.55 131.95 340.5 133.15 341.5 134.3 341.5 135.95 M341.5 145.5 Q341.5 147.1 340.3 148.05 339.3 148.75 337.8 148.75 336.5 148.6 335.55 147.4 334.6 145.9 334.6 144.35 334.6 142.85 335.55 142.15 336.5 140.95 337.95 141.15 339.3 141.35 340.5 142.7 341.5 143.8 341.5 145.5"/>
    <path stroke="none" fill="#0099ff" d="M607.7 63.5 Q607.7 65.55 606.05 66.75 604.5 67.95 602.2 67.8 599.9 67.8 598.35 66.35 596.85 65 596.85 62.95 596.7 61 598.35 59.65 599.9 58.35 602.2 58.35 604.5 58.55 606.2 60.05 607.7 61.55 607.7 63.5 M595 51.1 Q595 53 593.5 54.3 591.95 55.65 589.65 55.55 587.4 55.55 585.8 53.9 584.3 52.6 584.3 50.7 584.3 48.7 585.8 47.35 587.4 46.15 589.65 46.15 591.95 46.35 593.5 47.75 595 49.25 595 51.1 M582.5 38.7 Q582.5 40.75 581.1 42.15 579.55 43.5 577.3 43.35 575 43.5 573.65 41.95 572.1 40.6 572.1 38.7 572.1 36.6 573.65 35.35 575.15 33.95 577.3 33.95 579.55 34.2 581.1 35.55 582.5 36.85 582.5 38.7 M582.5 50.55 Q582.5 52.45 581.1 53.75 579.4 55.1 577.3 55.1 575 55.1 573.65 53.65 572.1 52.3 572.1 50.2 572.1 48.3 573.65 46.95 575 45.75 577.3 45.75 579.55 45.95 581.1 47.1 582.5 48.7 582.5 50.55 M582.5 62.15 Q582.5 64.3 581.1 65.55 579.55 66.95 577.3 66.75 575 66.75 573.65 65.15 572.1 63.75 572.1 61.8 572.1 59.8 573.65 58.55 575 57.4 577.3 57.4 579.55 57.55 581.1 58.95 582.5 60.2 582.5 62.15 M582.5 73.9 Q582.5 75.9 581.1 77.25 579.4 78.55 577.3 78.35 575 78.35 573.65 76.85 571.95 75.25 572.1 73.35 572.1 71.5 573.65 70.15 575 69.1 577.3 69.1 579.4 69.15 581.1 70.7 582.5 71.9 582.5 73.9 M595 62.95 Q595 65 593.5 66.15 591.95 67.5 589.65 67.35 587.4 67.35 585.8 65.75 584.3 64.3 584.3 62.35 584.3 60.45 585.8 59.1 587.4 57.95 589.65 57.95 591.95 57.95 593.5 59.5 595 61 595 62.95 M595 74.7 Q595 76.85 593.5 77.95 591.95 79.25 589.65 79.1 587.4 79.1 585.8 77.4 584.3 76.05 584.3 74.15 584.3 72.3 585.8 70.95 587.4 69.65 589.65 69.65 591.65 69.75 593.5 71.35 595 72.85 595 74.7 M607.7 75.5 Q607.7 77.4 606.05 78.7 604.5 80.05 602.2 79.8 599.9 79.65 598.35 78.2 596.85 76.85 596.85 74.7 596.85 72.85 598.35 71.5 599.9 70.3 602.2 70.3 604.5 70.55 606.05 71.9 607.7 73.35 607.7 75.5 M595 86.75 Q595 88.6 593.5 89.75 591.95 91.1 589.65 90.95 587.4 90.95 585.8 89.15 584.3 87.65 584.3 85.75 584.3 83.8 585.8 82.45 587.4 81.35 589.4 81.35 L589.8 81.35 Q591.95 81.55 593.5 83.15 595 84.6 595 86.75 M607.7 87.5 Q607.7 89.35 606.05 90.55 604.5 91.9 602.2 91.65 599.9 91.65 598.35 89.95 596.7 88.6 596.7 86.75 596.7 84.6 598.35 83.25 599.9 82.2 602.05 82.2 L602.35 82.2 Q604.5 82.3 606.05 83.8 607.7 85.4 607.7 87.5 M582.5 85.55 Q582.35 87.5 581.1 88.75 579.4 90.15 577.3 89.95 575 89.95 573.65 88.2 571.95 86.95 572.1 85 572.1 83.15 573.65 81.8 575 80.6 577.1 80.6 L577.5 80.6 Q579.55 80.85 581.1 82.3 582.5 83.75 582.5 85.55 M595 98.55 Q595 100.45 593.5 101.55 591.65 102.85 589.65 102.7 587.4 102.45 585.8 101 584.3 99.5 584.3 97.5 584.3 95.65 585.8 94.3 587.4 93.15 589.65 93.15 591.65 93.35 593.5 94.95 595 96.35 595 98.55 M582.35 97.35 Q582.35 99.25 580.9 100.6 579.4 101.9 577.3 101.75 575 101.55 573.5 100.05 571.95 98.55 571.95 96.85 571.95 94.7 573.65 93.35 575 92.3 577.3 92.45 579.4 92.6 580.9 93.95 582.35 95.25 582.35 97.35 M582.5 109 Q582.35 110.85 580.9 112.35 L580.7 112.35 Q579.15 113.55 577.3 113.35 575.15 113.15 573.8 111.8 L573.5 111.75 Q571.95 110.35 571.95 108.2 571.95 106.35 573.5 105.15 575 103.8 577.3 104.05 579.4 104.2 580.9 105.8 582.35 107.1 582.5 109 M595 110.35 Q595 112.3 593.5 113.35 L593.1 113.55 Q591.55 114.7 589.65 114.55 587.55 114.3 586.05 112.95 L585.8 112.6 Q584.3 111.35 584.3 109.4 584.2 107.25 585.8 106.15 587.4 105 589.65 105 591.65 105.15 593.5 106.75 595 108.35 595 110.35 M607.7 99.25 Q607.7 101.35 606.05 102.45 604.5 103.8 602.2 103.65 599.9 103.4 598.35 101.9 596.7 100.45 596.7 98.55 596.7 96.35 598.35 95.1 599.9 93.95 602.2 94.15 604.5 94.3 606.05 95.9 607.7 97.35 607.7 99.25 M607.7 111.35 Q607.7 113.35 606.05 114.55 L605.7 114.7 Q604.3 115.65 602.2 115.5 600.1 115.5 598.7 114.15 598.35 113.95 598.35 113.75 596.7 112.3 596.7 110.35 596.7 108.35 598.35 107.1 599.9 105.95 602.2 105.95 604.5 106.35 606.05 107.65 607.7 109.4 607.7 111.35 M523.8 26.05 Q523.8 27.9 522.45 29.25 520.9 30.35 519 30.35 516.9 30.35 515.65 28.85 514.05 27.75 514.05 25.75 514.3 24.15 515.65 22.75 516.9 21.65 519 21.4 520.9 21.65 522.45 22.95 523.8 24.15 523.8 26.05 M512.5 25.75 Q512.5 27.75 511.15 28.85 509.9 30.2 507.95 29.95 505.9 29.95 504.5 28.85 503.15 27.35 503.15 25.55 503.15 23.75 504.5 22.75 505.9 21.25 507.95 21.25 509.9 21.4 511.15 22.55 512.7 24.15 512.5 25.75 M535 26.15 Q535 28.05 533.65 29.4 532.1 30.7 530.3 30.55 528.1 30.7 526.75 29.25 525.25 27.9 525.25 26.15 525.25 24.3 526.75 22.95 528.1 21.8 530.3 21.65 532.1 21.8 533.65 23.1 535 24.3 535 26.15 M546.6 26.45 Q546.45 28.3 545.1 29.8 543.55 30.95 541.65 30.95 539.55 30.7 538.05 29.4 536.75 28.3 536.75 26.55 L536.75 26.15 Q536.75 24.45 538.05 23.1 539.55 21.8 541.65 21.95 543.8 21.95 545.1 23.35 546.6 24.45 546.6 26.45 M558.45 26.7 Q558.3 28.7 556.9 29.95 555.3 31.25 553.3 31.25 551.15 31.1 549.7 29.8 548.35 28.45 548.35 26.55 548.35 24.7 549.9 23.35 551.15 21.95 553.3 22.2 555.3 22.2 556.9 23.5 558.3 24.85 558.45 26.7 M570.35 27 Q570.35 28.85 568.85 30.2 567.4 31.65 565.1 31.5 563 31.25 561.5 29.95 559.9 28.85 559.9 27 559.9 24.85 561.5 23.5 563 22.2 565.25 22.35 567.4 22.35 568.85 23.75 570.35 25.1 570.35 27 M512.5 36.85 Q512.5 38.7 511.15 39.8 509.7 41.15 507.95 41.1 505.9 41.1 504.5 39.8 503.15 38.35 503.15 36.45 503.15 34.75 504.5 33.65 505.9 32.3 507.95 32.3 509.7 32.3 511.15 33.65 512.5 35.15 512.5 36.85 M512.5 47.9 Q512.5 49.4 511.55 50.35 L511.15 50.95 Q509.7 52.05 507.8 51.9 505.9 51.9 504.5 50.7 L503.95 49.95 Q503.15 49 503.15 47.5 503.15 45.55 504.5 44.45 505.9 43.35 507.8 43.35 509.7 43.35 511.15 44.6 512.5 45.95 512.5 47.9 M512.5 58.95 Q512.5 60.85 511.15 61.95 509.7 63.15 507.8 63.15 505.9 63.15 504.5 61.8 503 60.2 503.15 58.35 503.15 56.6 504.5 55.55 505.9 54.2 507.8 54.2 509.7 54.3 511.15 55.65 512.5 57.25 512.5 58.95 M512.5 70.15 Q512.5 71.9 511.1 73 509.7 74.3 507.8 73.9 505.7 73.9 504.35 72.85 503 71.35 503 69.35 503 67.5 504.5 66.55 505.9 65.15 507.8 65.15 509.7 65.4 511.1 66.75 512.5 68.2 512.5 70.15 M512.5 81.15 Q512.3 82.85 511.1 84.05 509.7 85.15 507.8 85 505.7 85 504.35 83.75 503 82.2 503 80.45 503 78.55 504.35 77.55 505.7 76.2 507.65 76.2 L507.8 76.2 Q509.7 76.45 511.1 77.8 512.5 79.25 512.5 81.15 M512.3 92.3 Q512.3 93.95 511.1 95.1 509.7 96.3 507.65 95.95 505.7 95.95 504.35 94.7 503 93.15 503 91.35 503 89.55 504.35 88.35 505.7 87.1 507.8 87.25 509.7 87.5 511.1 88.75 512.3 90.35 512.3 92.3 M512.3 103.25 Q512.3 105 511.1 106.15 L510.85 106.35 Q509.5 107.5 507.65 107.1 505.9 107.1 504.5 105.95 L504.35 105.8 Q502.85 104.2 503 102.3 503 100.6 504.35 99.5 505.7 98.3 507.65 98.3 509.5 98.55 511.1 99.9 512.3 101.35 512.3 103.25 M512.3 114.3 Q512.3 116.2 511.1 117.15 509.5 118.55 507.65 118.15 505.7 118.15 504.35 116.75 502.85 115.1 502.85 113.35 502.85 111.4 504.35 110.45 505.7 109.15 507.65 109.4 509.5 109.55 511.1 110.85 512.3 112.35 512.3 114.3 M570.35 38.55 Q570.2 40.55 568.85 41.8 567.4 43.1 565.1 43.1 563 42.95 561.5 41.55 559.9 40.2 559.9 38.35 559.9 36.45 561.5 35.15 563 33.65 565.1 33.8 567.4 33.95 568.85 35.35 570.35 36.6 570.35 38.55 M558.45 38.2 Q558.3 40.15 556.9 41.4 555.3 42.75 553.3 42.75 551.15 42.35 549.7 41.15 548.1 39.8 548.35 37.95 548.35 36.05 549.7 34.75 551.15 33.25 553.3 33.4 555.3 33.65 556.9 34.95 558.3 36.3 558.45 38.2 M558.3 49.65 Q558.3 51.5 556.9 52.85 555.3 54.2 553.3 53.9 551 53.75 549.7 52.6 548.1 51.1 548.35 49.4 548.1 47.5 549.7 46.15 551.15 44.6 553.3 44.85 555.3 45 556.9 46.35 558.3 47.75 558.3 49.65 M570.2 50.2 Q570.2 52.05 568.85 53.35 567.4 54.7 565.1 54.6 563 54.3 561.5 53 559.9 51.65 559.9 49.8 559.9 47.9 561.5 46.55 563 45.15 565.1 45.15 567.4 45.4 568.85 46.7 570.2 48.05 570.2 50.2 M546.6 37.8 Q546.45 39.65 545.1 41.1 543.55 42.35 541.65 42.15 539.55 41.95 538.05 40.75 536.75 39.55 536.75 37.8 L536.75 37.55 Q536.75 35.75 538.05 34.35 539.55 33 541.65 33.25 543.55 33.25 545.1 34.6 546.6 35.9 546.6 37.8 M546.6 49.25 Q546.45 50.95 545.1 52.45 543.55 53.75 541.65 53.65 539.55 53.35 538.05 52.05 536.75 50.7 536.75 49 L536.75 48.85 Q536.75 46.95 538.05 45.55 539.55 44.3 541.65 44.45 543.55 44.6 545.1 45.95 546.45 47.35 546.6 49.25 M570.2 61.55 Q570.2 63.5 568.7 65 567.15 66.35 565.1 65.95 563 65.75 561.5 64.45 559.9 63.15 559.9 61.15 559.9 59.25 561.5 57.95 563 56.6 565.1 56.85 567.4 57 568.7 58.35 570.2 59.65 570.2 61.55 M535 37.4 Q535 39.25 533.65 40.6 532.1 41.95 530.05 41.8 528.1 41.8 526.6 40.55 525.25 39.15 525.25 37.15 525.25 35.35 526.75 33.95 528.1 32.85 530.05 32.85 532.1 33 533.65 34.35 535 35.55 535 37.4 M535 48.7 Q535 50.2 534.05 51.35 L533.5 51.9 Q532.1 53.25 530.05 53 528.1 53 526.6 51.5 L526.2 50.95 Q525.25 49.95 525.25 48.45 525.25 46.55 526.6 45.15 528.1 44.05 530.05 44.05 532.1 44.3 533.5 45.4 535 46.7 535 48.7 M523.8 37 Q523.55 38.95 522.3 40.2 520.9 41.55 518.85 41.4 516.9 41.4 515.4 40.15 514.05 38.7 514.05 36.85 514.05 35.15 515.65 33.65 516.9 32.6 518.85 32.45 520.9 32.6 522.45 33.95 523.8 35.35 523.8 37 M523.8 48.3 Q523.55 49.8 522.85 50.95 L522.3 51.35 Q520.9 52.6 518.85 52.45 516.9 52.45 515.4 51.1 L515 50.55 Q514.05 49.4 514.05 47.9 514.05 45.95 515.4 44.85 516.9 43.75 518.85 43.75 520.9 43.75 522.3 45 523.55 46.35 523.8 48.3 M523.55 59.25 Q523.55 61.15 522.3 62.55 520.9 63.9 518.85 63.75 516.75 63.75 515.4 62.15 514.05 60.85 514.05 58.95 514.05 57.25 515.4 55.9 516.75 54.7 518.85 54.7 520.9 55 522.3 56.2 523.55 57.55 523.55 59.25 M523.55 70.55 Q523.55 72.45 522.3 73.75 520.75 74.95 518.85 74.7 516.75 74.7 515.4 73.15 513.9 71.9 514.05 70.15 514.05 68.2 515.4 66.95 516.75 65.75 518.85 65.75 520.75 65.95 522.3 67.5 523.55 68.7 523.55 70.55 M535 59.8 Q535 61.8 533.5 63.15 532.1 64.45 530.05 64.3 528.1 64.3 526.6 62.75 525.15 61.4 525.25 59.5 525.25 57.8 526.6 56.45 528.1 55.25 530.05 55.25 532.1 55.55 533.5 56.85 535 58.2 535 59.8 M535 71.35 Q535 73 533.5 74.3 531.95 75.65 530.05 75.5 527.95 75.5 526.6 73.9 525.15 72.6 525.15 70.7 525.15 68.75 526.6 67.75 527.95 66.35 530.05 66.55 531.95 66.75 533.5 67.95 535 69.35 535 71.35 M534.85 82.45 Q535 84.2 533.5 85.55 531.95 86.95 530.05 86.75 527.95 86.75 526.6 85.15 525.15 83.8 525.15 81.9 525.15 80.05 526.6 78.7 527.95 77.8 529.9 77.8 L530.3 77.8 Q532.1 77.95 533.5 79.25 534.85 80.6 534.85 82.45 M534.85 93.75 Q534.85 95.65 533.5 96.95 531.95 98.2 529.9 97.9 527.95 97.75 526.6 96.3 525.15 94.95 525.15 93.15 525.15 91.35 526.6 89.95 527.95 89 530.05 89 531.95 89.15 533.5 90.55 534.85 91.9 534.85 93.75 M523.55 81.8 Q523.55 83.4 522.1 84.75 520.75 86.15 518.85 85.95 516.75 85.95 515.4 84.2 513.9 82.85 513.9 81.15 513.9 79.25 515.4 77.95 516.75 77 518.6 77 L518.85 77 Q520.75 77.25 522.3 78.55 523.55 79.8 523.55 81.8 M523.55 92.85 Q523.55 94.7 522.1 95.95 520.75 97.35 518.85 96.95 516.75 96.95 515.4 95.5 513.9 94.15 513.9 92.3 513.9 90.35 515.4 89.15 516.75 88.05 518.85 88.05 520.75 88.35 522.1 89.75 523.55 90.95 523.55 92.85 M523.55 104.05 Q523.55 105.95 522.1 107.25 L521.9 107.25 Q520.6 108.35 518.6 108.2 516.9 108.05 515.65 106.75 515.4 106.75 515.25 106.55 513.9 105.15 513.9 103.25 513.9 101.35 515.4 100.2 516.75 99.25 518.6 99.25 520.75 99.5 522.1 100.85 523.4 102.15 523.55 104.05 M534.85 105 Q534.85 106.95 533.5 108.2 L533.3 108.35 Q531.7 109.4 529.9 109.15 528.1 109 526.6 107.65 L526.6 107.5 Q525.15 106.15 525.15 104.2 525.15 102.3 526.6 101.15 527.95 100.05 529.9 100.2 531.95 100.45 533.5 101.75 534.85 103.1 534.85 105 M558.05 152.75 Q558.05 154.6 556.7 155.8 554.9 156.95 553.1 156.75 550.85 156.35 549.5 154.95 547.95 153.5 547.95 151.65 547.95 149.75 549.5 148.6 551 147.25 553.1 147.65 554.9 147.65 556.7 149.4 558.05 150.85 558.05 152.75 M546.2 151.25 Q546.2 153.1 544.9 154.45 543.4 155.4 541.25 155.25 539.15 154.95 537.9 153.5 536.35 151.95 536.35 150.15 536.35 148.45 537.9 147.1 539.15 145.9 541.25 146.3 543.4 146.3 544.9 148.05 546.2 149.4 546.2 151.25 M570.2 142.55 Q570.2 144.35 568.7 145.75 567.15 146.85 564.9 146.7 562.85 146.3 561.25 144.75 559.7 143.5 559.7 141.5 559.7 139.5 561.25 138.3 562.85 136.95 565.1 137.35 567.15 137.75 568.7 139.15 570.2 140.55 570.2 142.55 M570.2 154.05 Q570.2 156.2 568.7 157.35 567.15 158.45 564.9 158.3 562.85 157.9 561.25 156.35 559.7 154.95 559.7 153 559.7 151 561.25 149.9 562.85 148.6 564.9 149 567.15 149.4 568.7 150.7 570.2 152.2 570.2 154.05 M534.85 116.35 Q534.85 118.15 533.3 119.5 531.95 120.85 529.9 120.45 527.7 120.05 526.5 118.85 525.15 117.35 525.15 115.5 525.15 113.55 526.6 112.35 527.95 111.35 529.9 111.4 531.95 111.75 533.5 112.95 534.85 114.3 534.85 116.35 M534.85 127.65 Q534.85 129.55 533.3 130.6 531.95 131.95 529.9 131.65 527.7 131.25 526.5 129.9 525.15 128.6 525.15 126.75 525.15 124.75 526.5 123.65 527.7 122.3 529.9 122.7 531.95 122.85 533.5 124.45 534.85 125.8 534.85 127.65 M523.4 115.25 Q523.4 116.95 522.1 118.3 520.75 119.65 518.6 119.25 516.75 119.1 515.25 117.75 513.9 116.2 513.9 114.3 513.9 112.6 515.25 111.35 516.75 110.35 518.6 110.35 520.75 110.45 522.1 111.95 523.4 113.35 523.4 115.25 M512.3 125.5 Q512.3 127.25 511.1 128.35 509.5 129.55 507.65 129.15 505.5 129 504.1 127.4 502.85 126.05 502.85 124.45 502.85 122.45 504.35 121.55 505.5 120.2 507.65 120.45 509.5 120.6 511.1 122.15 512.3 123.65 512.3 125.5 M523.4 126.45 Q523.4 128.2 522.1 129.55 520.6 130.6 518.6 130.45 516.5 130.3 515.25 128.75 513.9 127.25 513.9 125.5 513.9 123.65 515.25 122.45 516.5 121.4 518.6 121.55 520.6 121.75 522.1 123.1 523.4 124.55 523.4 126.45 M523.4 137.35 Q523.4 139 522.1 140.35 520.6 141.5 518.6 141.15 516.5 140.95 515.25 139.5 513.65 138.15 513.65 136.35 513.65 134.55 515.25 133.15 516.5 132.2 518.6 132.35 520.6 132.6 522.1 133.95 523.4 135.5 523.4 137.35 M512.3 136.2 Q512.1 137.9 510.85 139 509.5 140.15 507.65 139.9 505.5 139.9 504.1 138.15 502.85 136.75 502.85 135.1 502.85 133.15 504.1 131.95 505.5 130.85 507.65 131 509.5 131.25 511.1 132.75 512.1 134.3 512.3 136.2 M523.4 148.45 Q523.4 150.3 522.1 151.65 520.6 152.75 518.45 152.35 516.5 152.2 515.25 150.7 513.65 149.15 513.65 147.4 513.65 145.5 515.25 144.35 516.5 143.25 518.6 143.5 520.6 143.8 522.1 145.1 523.4 146.7 523.4 148.45 M512.1 147.25 Q512.1 149.15 510.85 150.15 509.5 151.25 507.5 151 505.5 150.85 504.1 149.4 502.85 147.8 502.85 145.9 502.85 144.2 504.1 143.1 505.5 141.9 507.65 142.15 509.5 142.55 510.85 143.8 512.1 145.35 512.1 147.25 M534.85 138.55 Q534.85 140.35 533.3 141.75 531.7 142.85 529.9 142.55 527.7 142.3 526.5 140.85 525.15 139.15 525.15 137.55 524.9 135.65 526.5 134.55 527.7 133.15 529.9 133.55 531.95 133.95 533.3 135.25 534.85 136.55 534.85 138.55 M534.85 149.9 Q534.85 151.8 533.3 153 531.7 154.05 529.9 153.95 527.7 153.5 526.5 151.95 524.9 150.7 524.9 148.75 524.9 146.85 526.5 145.75 527.7 144.35 529.9 144.95 531.7 145.1 533.3 146.7 534.85 148.05 534.85 149.9 M534.85 161.15 Q534.7 163.1 533.3 164.2 531.7 165.5 529.9 165.1 527.7 164.75 526.5 163.5 524.9 161.9 524.9 159.95 524.9 158.45 525.8 157.35 L526.5 156.95 Q527.7 155.55 529.9 155.95 531.7 156.35 533.3 157.9 L533.9 158.45 Q534.85 159.55 534.85 161.15 M534.7 172.55 Q534.7 174.3 533.3 175.65 531.7 176.75 529.7 176.35 527.7 175.95 526.2 174.45 524.9 173.1 524.9 171.25 524.9 169.4 526.2 168.15 527.7 167.1 529.9 167.4 531.7 167.55 533.3 169.1 534.7 170.7 534.7 172.55 M546.2 162.7 Q546.2 164.55 544.75 165.9 543.4 166.85 541.25 166.7 539.15 166.3 537.9 164.95 536.35 163.5 536.35 161.5 536.35 159.55 537.9 158.45 539.15 157.15 541.25 157.55 543.4 157.75 544.75 159.15 546.2 160.75 546.2 162.7 M523.4 159.55 Q523.15 161.5 521.9 162.85 520.6 163.8 518.45 163.65 516.5 163.5 515.25 161.75 513.65 160.35 513.65 158.45 513.65 156.95 514.7 155.95 514.85 155.55 515.25 155.4 516.5 154.45 518.6 154.6 520.6 154.95 522.1 156.35 L522.45 156.95 Q523.15 158.15 523.4 159.55 M512.1 158.45 Q512.1 160.2 510.85 161.15 509.3 162.3 507.5 162.15 505.5 161.9 504.1 160.35 502.6 158.85 502.85 156.95 502.85 155.4 503.55 154.45 L504.1 154.05 Q505.5 153 507.5 153.1 509.5 153.5 510.85 154.95 L511.4 155.55 Q512.1 156.95 512.1 158.45 M512.1 169.5 Q512.1 171.4 510.85 172.35 509.3 173.5 507.5 173.1 505.5 172.95 503.95 171.25 502.6 169.9 502.6 168.05 502.6 166.15 504.1 165.1 505.5 164.05 507.5 164.2 509.3 164.55 510.85 166.15 512.1 167.55 512.1 169.5 M523.15 170.85 Q523.15 172.75 521.9 173.9 520.6 175 518.45 174.6 516.35 174.45 515 172.95 513.65 171.4 513.65 169.75 513.65 167.75 515 166.7 516.35 165.75 518.45 165.75 520.6 166.15 521.9 167.55 523.15 168.95 523.15 170.85 M546.2 174.05 Q546.2 175.95 544.75 177.15 543.4 178.3 541.25 178.15 539.15 177.55 537.65 176.2 536.35 174.6 536.35 172.95 536.35 171 537.65 169.75 539.15 168.55 541.25 168.95 543.4 169.1 544.9 170.85 546.2 172.2 546.2 174.05 M570.2 165.75 Q570.1 167.75 568.7 168.95 567.15 170.3 564.9 169.9 562.85 169.5 561.25 168.05 559.7 166.45 559.7 164.55 559.7 162.7 561.25 161.35 562.85 160.2 564.9 160.55 567.15 160.95 568.7 162.55 570.2 163.8 570.2 165.75 M558.05 164.2 Q558.05 166.15 556.5 167.4 554.9 168.45 553.1 168.15 550.85 167.75 549.5 166.45 547.95 164.95 547.95 163.1 547.95 161.15 549.5 159.8 551 158.7 553.1 159 554.9 159.15 556.7 160.95 558.05 162.3 558.05 164.2 M558.05 175.8 Q558.05 177.75 556.5 178.85 554.9 179.8 553.1 179.8 550.85 179.15 549.5 177.9 547.95 176.35 547.95 174.45 547.95 172.55 549.5 171.4 550.85 170.05 553.1 170.45 554.9 170.7 556.5 172.35 558.05 173.9 558.05 175.8 M570.2 177.55 Q570.1 179.4 568.7 180.55 567.15 181.8 564.9 181.55 562.85 180.95 561.25 179.55 559.7 178.15 559.7 176.2 559.7 174.05 561.25 172.95 562.85 171.8 564.9 172.2 567.15 172.55 568.7 174.05 570.1 175.65 570.2 177.55 M607.7 123.25 Q607.7 125.1 606.05 126.45 604.5 127.8 602.2 127.4 599.9 127.25 598.2 125.8 596.7 124.05 596.7 122.3 596.7 120.2 598.35 118.85 599.9 117.75 602.2 117.9 604.5 118.15 606.05 119.65 607.55 121.15 607.7 123.25 M607.7 146.85 Q607.55 148.75 606.05 149.9 604.5 151.25 602.2 150.85 599.9 150.7 598.35 149 596.7 147.65 596.7 145.5 596.7 143.65 598.2 142.3 599.9 141.15 602.2 141.35 604.5 141.5 606.05 143.1 607.55 144.75 607.7 146.85 M607.7 135.25 Q607.55 137.15 606.05 138.3 604.5 139.55 602.2 139.15 599.9 139 598.2 137.55 596.7 135.95 596.7 134.15 596.7 131.95 598.35 130.6 599.9 129.75 602.2 129.75 604.5 130.15 606.05 131.65 607.7 133.35 607.7 135.25 M595 122.15 Q595 124.05 593.5 125.1 591.65 126.45 589.65 126.35 587.4 126.05 585.8 124.45 584.2 122.85 584.3 121.15 584.2 119.1 585.8 117.75 587.4 116.55 589.65 116.75 591.65 116.95 593.5 118.55 595 120.05 595 122.15 M595 133.95 Q595 135.8 593.5 136.95 591.65 138.3 589.65 137.9 587.4 137.9 585.8 136.2 584.2 134.7 584.3 132.75 584.2 130.85 585.8 129.55 587.4 128.35 589.65 128.6 591.65 129 593.5 130.3 595 131.95 595 133.95 M582.35 120.85 Q582.35 122.7 580.9 124.05 579.4 125.4 577.3 124.95 575 124.95 573.5 123.25 571.95 121.75 571.95 119.9 571.95 117.9 573.5 116.55 575 115.65 577.3 115.65 579.4 115.95 580.9 117.35 582.35 118.7 582.35 120.85 M582.35 132.6 Q582.35 134.55 580.9 135.65 579.4 136.95 577.1 136.55 575 136.55 573.5 135.1 571.95 133.55 571.95 131.65 571.95 129.55 573.5 128.35 575 127.25 577.1 127.25 579.4 127.65 580.9 129.15 582.35 130.45 582.35 132.6 M582.35 143.8 Q582.35 145.9 580.9 147.1 579.4 148.45 577.1 148.05 575 147.8 573.5 146.3 571.95 144.75 571.95 142.85 571.95 140.95 573.5 139.55 575 138.55 577.1 138.7 579.4 138.95 580.9 140.35 582.35 141.9 582.35 143.8 M595 145.5 Q595 147.4 593.3 148.6 591.65 149.75 589.65 149.4 587.4 149.4 585.8 147.65 584.2 146.05 584.3 144.2 584.2 142.3 585.8 140.95 587.4 139.9 589.65 139.95 591.65 140.35 593.5 141.75 595 143.5 595 145.5 M595 157.35 Q595 159.15 593.5 160.35 591.65 161.5 589.4 161.35 587.15 160.95 585.65 159.4 584.2 157.9 584.2 155.95 584.2 153.95 585.65 152.75 587.4 151.65 589.4 151.8 591.65 152.2 593.3 153.65 595 155.4 595 157.35 M582.35 155.55 Q582.35 157.55 580.9 158.85 579.4 159.95 577.1 159.8 575 159.55 573.5 157.9 571.95 156.35 571.95 154.45 571.95 152.55 573.5 151.25 575 150.3 577.1 150.3 579.4 150.7 580.9 152.2 582.35 153.65 582.35 155.55 M582.35 167.4 Q582.35 169.4 580.9 170.7 579.4 171.8 577.1 171.4 574.75 171 573.5 169.5 571.7 168.05 571.95 166.15 571.95 164.2 573.5 163.1 575 161.9 577.1 162.15 579.4 162.55 580.9 164.05 582.35 165.35 582.35 167.4"/>
    <path stroke="none" fill="#000000" d="M70.45 49.1 L45 49.1 45 59 70.45 59 Q72.55 59 73.4 58.05 74.2 57.1 74.2 54.7 L74.2 53.35 Q74.2 51 73.4 50.2 72.55 49.1 70.45 49.1 M69.65 30.85 L46.15 30.85 Q45 30.85 45 31.9 L45 40.7 69.65 40.7 Q72.2 40.7 73.25 39.8 74.05 38.7 74.05 36.7 L74.05 35 Q74.05 32.7 73.25 31.65 72.2 30.85 69.65 30.85 M145.55 47.4 L145.55 55.65 Q145.55 59.25 144.6 62.2 143.95 64.85 141.95 67 140.05 69.1 136.95 70.15 133.8 71.25 129.35 71.25 L110.6 71.25 Q106.2 71.25 103 70.15 100.15 69.1 98.05 67 96.05 64.85 95.35 62.2 94.45 59.25 94.45 55.65 L94.45 47.4 Q94.45 44.05 95.35 41.1 96.05 38.15 98.05 36.2 100.15 34.2 103 32.95 106.2 31.9 110.6 31.9 L129.35 31.9 Q133.8 31.9 136.95 32.95 140.05 34.2 141.95 36.2 143.95 38.15 144.6 41.1 145.55 44.05 145.55 47.4 M112.95 59.65 L127 59.65 Q130.15 59.65 131.4 58.6 132.55 57.25 132.55 54.05 L132.55 48.55 Q132.55 44.95 131.35 43.5 130.15 42.15 127 42.15 L112.95 42.15 Q109.8 42.15 108.75 43.5 107.55 44.95 107.55 48.55 L107.55 54.05 Q107.55 57.25 108.75 58.6 109.8 59.65 112.95 59.65 M45.4 60.55 L45 60.55 45 71.25 30.15 71.25 30.15 21.1 Q30.15 19 32.2 19 L75.15 19 Q82.2 19 85.65 22.45 88.95 25.5 88.95 31.4 L88.95 36.15 Q88.95 39.25 87.55 41.1 86.2 43.25 84.55 44.3 86.85 45.5 88.35 47.65 89.8 49.9 89.8 53.1 L89.8 57.75 Q89.8 61.1 89.25 63.65 88.35 66.15 86.85 67.8 85.25 69.5 82.75 70.3 79.95 71.25 76.15 71.25 L49.4 71.25 45.4 60.55 M169.25 59.65 L183.55 59.65 Q186.55 59.65 187.75 58.6 189.15 57.25 189.15 54.05 L189.15 48.55 Q189.15 44.95 187.75 43.5 186.55 42.15 183.55 42.15 L169.25 42.15 Q166.45 42.15 165 43.5 164.05 44.95 164.05 48.55 L164.05 54.05 Q164.05 57.25 165 58.6 166.45 59.65 169.25 59.65 M202.15 47.4 L202.15 55.65 Q202.15 59.25 201.15 62.2 200.2 64.85 198.35 67 196.45 69.1 193.25 70.15 190.15 71.25 185.95 71.25 L167 71.25 Q162.55 71.25 159.65 70.15 156.55 69.1 154.6 67 152.6 64.85 151.8 62.2 150.85 59.25 150.85 55.65 L150.85 47.4 Q150.85 44.05 151.8 41.1 152.6 38.15 154.6 36.2 156.55 34.2 159.65 32.95 162.55 31.9 167 31.9 L185.95 31.9 Q190.15 31.9 193.25 32.95 196.45 34.2 198.35 36.2 200.2 38.15 201.15 41.1 202.15 44.05 202.15 47.4 M208.05 15.25 L221 15.25 221 47.65 221.55 47.65 239.15 31.9 255.3 31.9 255.3 32.55 235.35 49.35 256.35 70.7 256.35 71.25 240.15 71.25 221.55 52.15 221 52.15 221 71.25 208.05 71.25 208.05 15.25"/>
    <path stroke="none" fill="#000000" d="M262.7 117.35 L266.05 125.5 266.45 125.5 266.45 94.05 278.2 94.05 278.2 130.55 Q278.2 133.65 277.4 136.3 276.6 138.85 274.9 140.55 273.25 142.45 270.5 143.65 267.7 144.55 263.7 144.55 L236.55 144.55 236.55 134.6 261.7 134.6 Q264.2 134.6 265.4 133.4 266.45 132.3 266.45 129.8 L266.45 126.95 249.5 126.95 Q241.4 126.95 238.05 123.75 236.55 122.15 235.75 119.65 234.7 117.25 234.7 113.75 L234.7 94.05 246.6 94.05 246.6 112.2 Q246.6 115.35 247.8 116.2 248.7 117.35 251.65 117.35 L262.7 117.35 M229.25 129.8 L216.7 129.8 216.7 94.3 Q216.7 93.1 215.65 93.1 L214.95 93.1 Q214.15 93.1 213.75 94.05 L200.85 128.2 Q200.55 129.25 200.05 129.65 L198.3 129.8 182.85 129.8 181 129.65 Q180.55 129.25 180.3 128.2 L167.5 94.05 Q167.1 93.1 166.2 93.1 L165.4 93.1 Q164.45 93.1 164.45 94.3 L164.45 129.8 151.8 129.8 151.8 84.3 Q151.8 82.45 153.75 82.45 L175.1 82.45 Q177.25 82.45 177.8 84.15 L189.5 118.05 190.05 118.55 191.4 118.55 Q191.8 118.55 191.8 118.05 L203.65 84.15 204.55 82.7 206.3 82.45 227.35 82.45 Q229.25 82.45 229.25 84.3 L229.25 129.8"/>
  </g>
</svg>